<?xml version="1.0" encoding="UTF-8"?>
<svg version="1.1" xmlns="http://www.w3.org/2000/svg" width="560" height="560">
<path d="M0 0 C1.46177422 -0.00855011 1.46177422 -0.00855011 2.95307922 -0.01727295 C5.00948015 -0.02666408 7.06589573 -0.0332333 9.12231445 -0.03710938 C12.18534634 -0.0467091 15.24767485 -0.0777455 18.31054688 -0.109375 C36.29570315 -0.20604895 53.95823478 1.64879843 71.55078125 5.453125 C72.53095215 5.66291992 73.51112305 5.87271484 74.52099609 6.08886719 C116.32925638 15.35581885 155.26247509 34.36395519 188.55078125 61.203125 C189.13069824 61.66589844 189.71061523 62.12867188 190.30810547 62.60546875 C198.46702199 69.16492392 205.93720415 76.39405598 213.36328125 83.765625 C214.23500977 84.62800781 215.10673828 85.49039063 216.00488281 86.37890625 C221.94080251 92.3442005 227.33900443 98.59900025 232.55078125 105.203125 C233.08485596 105.87255127 233.61893066 106.54197754 234.16918945 107.23168945 C269.21199704 151.56973501 292.4863229 209.71510947 292.75390625 266.65234375 C292.75960632 267.62685989 292.7653064 268.60137604 292.7711792 269.60542297 C292.78057033 271.6618239 292.78713955 273.71823948 292.79101562 275.7746582 C292.80061535 278.83769009 292.83165175 281.9000186 292.86328125 284.96289062 C292.9599552 302.9480469 291.10510782 320.61057853 287.30078125 338.203125 C287.09098633 339.1832959 286.88119141 340.1634668 286.66503906 341.17333984 C277.3980874 382.98160013 258.38995106 421.91481884 231.55078125 455.203125 C231.08800781 455.78304199 230.62523437 456.36295898 230.1484375 456.96044922 C223.58898233 465.11936574 216.35985027 472.5895479 208.98828125 480.015625 C208.12589844 480.88735352 207.26351563 481.75908203 206.375 482.65722656 C200.40970575 488.59314626 194.154906 493.99134818 187.55078125 499.203125 C186.88135498 499.73719971 186.21192871 500.27127441 185.5222168 500.8215332 C141.18417124 535.86434079 83.03879678 559.13866665 26.1015625 559.40625 C25.12704636 559.41195007 24.15253021 559.41765015 23.14848328 559.42352295 C21.09208235 559.43291408 19.03566677 559.4394833 16.97924805 559.44335938 C13.91621616 559.4529591 10.85388765 559.4839955 7.79101562 559.515625 C-10.19414065 559.61229895 -27.85667228 557.75745157 -45.44921875 553.953125 C-46.42938965 553.74333008 -47.40956055 553.53353516 -48.41943359 553.31738281 C-90.22769388 544.05043115 -129.16091259 525.04229481 -162.44921875 498.203125 C-163.02913574 497.74035156 -163.60905273 497.27757812 -164.20654297 496.80078125 C-172.36545949 490.24132608 -179.83564165 483.01219402 -187.26171875 475.640625 C-188.13344727 474.77824219 -189.00517578 473.91585938 -189.90332031 473.02734375 C-195.83924001 467.0620495 -201.23744193 460.80724975 -206.44921875 454.203125 C-206.98329346 453.53369873 -207.51736816 452.86427246 -208.06762695 452.17456055 C-243.11043454 407.83651499 -266.3847604 349.69114053 -266.65234375 292.75390625 C-266.65804382 291.77939011 -266.6637439 290.80487396 -266.6696167 289.80082703 C-266.67900783 287.7444261 -266.68557705 285.68801052 -266.68945312 283.6315918 C-266.69905285 280.56855991 -266.73008925 277.5062314 -266.76171875 274.44335938 C-266.8583927 256.4582031 -265.00354532 238.79567147 -261.19921875 221.203125 C-260.98942383 220.2229541 -260.77962891 219.2427832 -260.56347656 218.23291016 C-251.2965249 176.42464987 -232.28838856 137.49143116 -205.44921875 104.203125 C-204.98644531 103.62320801 -204.52367187 103.04329102 -204.046875 102.44580078 C-197.48741983 94.28688426 -190.25828777 86.8167021 -182.88671875 79.390625 C-182.02433594 78.51889648 -181.16195312 77.64716797 -180.2734375 76.74902344 C-174.30814325 70.81310374 -168.0533435 65.41490182 -161.44921875 60.203125 C-160.77979248 59.66905029 -160.11036621 59.13497559 -159.4206543 58.5847168 C-115.08260874 23.54190921 -56.93723428 0.26758335 0 0 Z " fill="#FEFEFE" transform="translate(267.44921875,0.796875)"/>
<path d="M0 0 C0.35191406 0.90621094 0.70382813 1.81242188 1.06640625 2.74609375 C5.85607671 14.56394907 11.33449412 23.77839686 23 30 C26.05036102 31.01077051 28.80258652 31.53585933 32 32 C32 32.66 32 33.32 32 34 C41.89721332 34.36960548 50.39588116 33.67474017 60 31 C61.33242155 30.6630405 62.6653654 30.3280844 64 30 C64 29.34 64 28.68 64 28 C65.72265625 26.80859375 65.72265625 26.80859375 68.0625 25.4375 C77.29608359 19.42190001 81.28250873 11.12459603 85 1 C93.87264316 1.19716985 100.97009323 6.87970223 107.3125 12.6875 C116.90694554 22.77548698 118.48049733 34.01989307 118.27734375 47.21484375 C117.82340786 58.79359651 112.0358448 68.46887723 103.6875 76.25 C98.51466002 80.60424241 93.31948701 84.70881693 86.4375 85.3125 C85.633125 85.209375 84.82875 85.10625 84 85 C84 85.66 84 86.32 84 87 C69.49746162 87.68265086 58.35975938 87.00734387 46.71875 77.33203125 C44.90402307 75.92561788 43.07917924 74.96207636 41 74 C40.030625 74.886875 39.06125 75.77375 38.0625 76.6875 C27.20246283 85.98668163 16.20585892 88.00528251 2.30126953 87.24267578 C-8.79844069 86.07217801 -18.34438648 78.64875643 -25.328125 70.3515625 C-33.70004585 58.57610373 -35.36670879 47.07651144 -34 33 C-30.86216049 20.40806643 -22.1999267 10.33246767 -11.453125 3.34375 C-7.91368376 1.40494779 -4.07220456 0 0 0 Z " fill="#CD8DFE" transform="translate(43,254)"/>
<path d="M0 0 C0.83345947 0.00467285 1.66691895 0.0093457 2.52563477 0.01416016 C8.88505662 0.16683096 14.03235672 1.30378986 19.625 4.4375 C20.95694542 5.10693531 22.28987938 5.77441996 23.625 6.4375 C23.625 7.0975 23.625 7.7575 23.625 8.4375 C24.20507812 8.705625 24.78515625 8.97375 25.3828125 9.25 C34.13094284 13.88315614 39.30991188 21.70490085 42.9375 30.6875 C44.5912779 39.70810673 45.6372354 48.64298357 42.625 57.4375 C42.31691406 58.38238281 42.00882812 59.32726562 41.69140625 60.30078125 C38.25010814 69.67206712 32.64573652 77.73168245 23.625 82.4375 C22.965 82.4375 22.305 82.4375 21.625 82.4375 C21.625 83.0975 21.625 83.7575 21.625 84.4375 C11.89600225 89.09049892 0.21380873 91.51564207 -10.375 88.4375 C-10.375 87.7775 -10.375 87.1175 -10.375 86.4375 C-12.23125 86.4684375 -12.23125 86.4684375 -14.125 86.5 C-22.11037157 85.59314392 -28.33331716 79.83930923 -33.51953125 74.0390625 C-35.34399196 71.58259907 -36.88466743 69.1090004 -38.375 66.4375 C-38.8803125 65.56867188 -39.385625 64.69984375 -39.90625 63.8046875 C-44.89532087 53.85426282 -44.99134313 42.35146115 -42.48828125 31.64453125 C-38.58119065 20.57227783 -31.42551029 11.6159544 -21.375 5.4375 C-20.055 5.4375 -18.735 5.4375 -17.375 5.4375 C-17.375 4.7775 -17.375 4.1175 -17.375 3.4375 C-11.38369131 0.85314831 -6.50421566 -0.0799833 0 0 Z " fill="#C0C5FE" transform="translate(85.375,199.5625)"/>
<path d="M0 0 C1.69672852 0.00773438 1.69672852 0.00773438 3.42773438 0.015625 C11.7214803 0.0946601 11.7214803 0.0946601 15.1875 1.25 C15.1875 1.91 15.1875 2.57 15.1875 3.25 C16.28578125 3.40275391 16.28578125 3.40275391 17.40625 3.55859375 C23.63026292 5.10585539 28.69706458 10.02310409 32.125 15.3125 C37.68125179 24.7322387 37.86327006 36.90663966 35.3125 47.375 C30.25143791 63.62367303 21.95983152 73.3214934 7.1875 81.25 C2.67666419 82.75361194 -1.77396805 82.51625703 -6.5 82.5625 C-7.9530957 82.60600586 -7.9530957 82.60600586 -9.43554688 82.65039062 C-16.90859015 82.7160766 -22.37730071 81.48652172 -27.90625 76.27734375 C-28.3703125 75.58769531 -28.834375 74.89804687 -29.3125 74.1875 C-29.7971875 73.51589844 -30.281875 72.84429687 -30.78125 72.15234375 C-33.92542931 63.30338457 -31.10999424 54.25846185 -28.5 45.625 C-28.19126953 44.55765625 -27.88253906 43.4903125 -27.56445312 42.390625 C-25.97422579 36.94033004 -24.28475639 31.53837447 -22.40625 26.18041992 C-21.49789072 23.22713175 -21.13888391 20.3180088 -20.8125 17.25 C-26.42608901 18.57084447 -28.80844354 22.68687627 -31.8125 27.25 C-32.1425 27.91 -32.4725 28.57 -32.8125 29.25 C-33.4725 29.25 -34.1325 29.25 -34.8125 29.25 C-34.77470118 20.36727812 -32.09498331 14.00275601 -26.140625 7.39453125 C-18.36981208 0.17623026 -10.15409124 -0.18836575 0 0 Z " fill="#1360DD" transform="translate(229.8125,224.75)"/>
<path d="M0 0 C1.47914002 1.24376598 2.92287098 2.53196604 4.3125 3.875 C5.26125 4.7825 6.21 5.69 7.1875 6.625 C14.06539162 17.14412835 15.16732775 29.7589048 12.91772461 42.02807617 C9.6316638 55.7740844 3.45342008 67.2399884 -8.6875 74.875 C-11.40149962 76.41034836 -12.49258404 76.875 -15.6875 76.875 C-15.6875 77.535 -15.6875 78.195 -15.6875 78.875 C-22.90707221 81.04788096 -32.0134725 81.07297694 -38.921875 77.89453125 C-47.45722937 72.96593061 -51.39291845 65.69287149 -54.50390625 56.44921875 C-57.92127665 42.99481639 -54.95496786 29.01094572 -48.6875 16.875 C-43.67674536 8.95275949 -36.77007755 0.80910284 -27.625 -2.125 C-18.45728692 -4.05640023 -8.10827661 -5.47006124 0 0 Z " fill="#1360DD" transform="translate(323.6875,228.125)"/>
<path d="M0 0 C0.35191406 0.90621094 0.70382813 1.81242188 1.06640625 2.74609375 C5.8960621 14.66260754 11.38632784 23.56832503 23 30 C25.64370368 31.08406002 28.30489411 32.04542379 31 33 C31.01417969 34.22074219 31.02835937 35.44148438 31.04296875 36.69921875 C31.38024762 50.73202055 33.92303608 61.23070971 42 73 C30.64968493 83.73176929 20.27182039 87.72672076 4.78515625 87.37890625 C-6.66445864 86.75094428 -15.91987604 80.48300625 -23.625 72.375 C-33.125535 61.08766714 -34.88484467 49.50027686 -34.2265625 35.33349609 C-33.06556551 23.37572753 -24.85347505 14.32578111 -16.24609375 6.76171875 C-11.48817026 3.0298518 -6.22974789 0 0 0 Z " fill="#F8907D" transform="translate(43,254)"/>
<path d="M0 0 C0.76070801 0.011521 1.52141602 0.02304199 2.30517578 0.03491211 C3.79830967 0.06320206 5.29134398 0.09755423 6.78417969 0.13867188 C8.34786416 0.17751153 9.91242142 0.18083856 11.4765625 0.171875 C19.45376335 0.46195503 25.96071683 5.39821683 31.4375 10.875 C33.47548072 16.01847514 33.69870778 20.74491323 32.75 26.1875 C30.35936607 31.16732549 26.84476929 34.92315809 21.75 37.1875 C21.09 37.1875 20.43 37.1875 19.75 37.1875 C21.13135663 39.95021327 22.7609033 40.20693044 25.5625 41.4375 C30.1306845 43.69871865 32.75771195 45.29733841 34.75 50.1875 C35.81854146 55.32471855 35.63567446 59.38263908 33.3046875 64.1328125 C28.97676761 70.56336553 23.93894913 75.1612461 16.75 78.1875 C15.76 78.1875 14.77 78.1875 13.75 78.1875 C13.75 78.8475 13.75 79.5075 13.75 80.1875 C7.74283719 82.84207371 1.68819608 82.5186075 -4.75 82.5 C-5.86503906 82.51611328 -6.98007812 82.53222656 -8.12890625 82.54882812 C-18.39573328 82.55494662 -18.39573328 82.55494662 -23.25 79.1875 C-27.29181915 74.69658983 -29.6104534 71.51433026 -29.44140625 65.32861328 C-29.14074386 61.9653363 -28.2647426 58.8274361 -27.25 55.625 C-27.03504883 54.91754639 -26.82009766 54.21009277 -26.59863281 53.48120117 C-24.25876969 45.92667069 -21.61139929 38.46994223 -18.9296875 31.03100586 C-17.2860948 26.42552214 -15.80879944 22.07699514 -15.25 17.1875 C-21.16784383 18.45560939 -23.83593084 21.4723035 -27.25 26.1875 C-27.58 26.8475 -27.91 27.5075 -28.25 28.1875 C-28.91 28.1875 -29.57 28.1875 -30.25 28.1875 C-30.03315527 19.67141591 -27.33184154 14.48435374 -21.5625 8.3125 C-20.799375 7.61125 -20.03625 6.91 -19.25 6.1875 C-18.59 5.5275 -17.93 4.8675 -17.25 4.1875 C-15.93 4.1875 -14.61 4.1875 -13.25 4.1875 C-13.25 3.5275 -13.25 2.8675 -13.25 2.1875 C-8.86233641 0.00230534 -4.79953872 -0.08802141 0 0 Z " fill="#1461DD" transform="translate(518.25,224.8125)"/>
<path d="M0 0 C3.16872216 0.68885264 4.96142228 2.13674555 7.15625 4.46875 C10.68150347 11.51925694 7.56566894 22.15106176 6.03125 29.46875 C5.81186768 30.54439209 5.59248535 31.62003418 5.36645508 32.72827148 C3.29019414 42.53481259 0.43846142 52.00560437 -2.84375 61.46875 C-0.20375 61.79875 2.43625 62.12875 5.15625 62.46875 C5.15625 63.12875 5.15625 63.78875 5.15625 64.46875 C16.56890099 65.11200734 16.56890099 65.11200734 27.15625 61.46875 C28.3628125 60.8809375 28.3628125 60.8809375 29.59375 60.28125 C30.109375 60.013125 30.625 59.745 31.15625 59.46875 C34.71020767 63.4846279 34.66009514 66.58198402 34.5078125 71.7734375 C33.87522178 76.62329971 31.58893857 79.20461302 28.03125 82.34375 C20.02071553 85.47830697 11.70826457 82.83064923 3.84375 80.40625 C1.93411536 79.82172017 0.02141067 79.24710608 -1.89453125 78.68359375 C-2.72637939 78.42698975 -3.55822754 78.17038574 -4.4152832 77.90600586 C-9.48751491 76.99272879 -12.61051011 78.90652586 -16.84375 81.46875 C-17.83375 81.46875 -18.82375 81.46875 -19.84375 81.46875 C-19.84375 82.12875 -19.84375 82.78875 -19.84375 83.46875 C-22.53125 83.78125 -22.53125 83.78125 -25.84375 83.46875 C-29.74622341 80.27581721 -32.46150634 77.16223437 -33.1796875 72.1015625 C-33.27192936 66.17963493 -32.69560078 63.02093728 -28.84375 58.46875 C-27.84375 57.46875 -27.84375 57.46875 -25.33984375 57.37109375 C-24.33050781 57.38269531 -23.32117188 57.39429688 -22.28125 57.40625 C-21.26933594 57.41527344 -20.25742187 57.42429687 -19.21484375 57.43359375 C-18.04115234 57.45099609 -18.04115234 57.45099609 -16.84375 57.46875 C-16.80636719 56.77652344 -16.76898438 56.08429688 -16.73046875 55.37109375 C-16.23939949 48.06282768 -15.03146301 41.09233656 -13.54296875 33.92578125 C-12.2927224 27.74439564 -11.81068686 22.11664614 -12.03613281 15.80493164 C-12.31571798 5.98509489 -12.31571798 5.98509489 -9.90625 2.53125 C-6.32947763 0.1224033 -4.23626751 -0.28241783 0 0 Z " fill="#1561DD" transform="translate(418.84375,224.53125)"/>
<path d="M0 0 C1.11639359 -0.00807175 2.23278717 -0.01614349 3.38301086 -0.02445984 C5.73554958 -0.03825274 8.0881079 -0.04899619 10.44067383 -0.05688477 C12.85284257 -0.06846683 15.26498449 -0.08901514 17.67700195 -0.1184082 C21.15984531 -0.16084432 24.64193109 -0.17721487 28.125 -0.1875 C29.20625656 -0.20500809 30.28751312 -0.22251617 31.40153503 -0.24055481 C32.40300064 -0.23762924 33.40446625 -0.23470367 34.4362793 -0.23168945 C35.31752975 -0.23755569 36.19878021 -0.24342194 37.10673523 -0.24946594 C39.36328125 0.23828125 39.36328125 0.23828125 41.13606262 2.02546692 C43.00985516 5.40412733 43.21740173 8.54348541 42.36328125 12.23828125 C40.8025244 14.842157 38.93029631 16.62446999 36.36328125 18.23828125 C33.03050652 18.94025699 29.87498952 18.81219936 26.48828125 18.61328125 C25.60914063 18.58621094 24.73 18.55914062 23.82421875 18.53125 C21.66950524 18.4609876 19.51606532 18.3533806 17.36328125 18.23828125 C17.18152344 20.05585938 17.18152344 20.05585938 16.99609375 21.91015625 C16.87609009 23.10886353 16.87609009 23.10886353 16.75366211 24.33178711 C16.574082 26.12940548 16.39522889 27.92709661 16.21704102 29.72485352 C15.76798838 34.24557815 15.31024599 38.76475927 14.8203125 43.28125 C13.53894484 55.2565597 12.82241262 67.2042065 12.36328125 79.23828125 C11.70328125 79.23828125 11.04328125 79.23828125 10.36328125 79.23828125 C10.36328125 79.89828125 10.36328125 80.55828125 10.36328125 81.23828125 C6.23108574 83.24176998 2.93692719 83.80998699 -1.63671875 83.23828125 C-4.72946825 80.77936559 -6.42447362 79.27157991 -7.23046875 75.34765625 C-7.19953125 74.2390625 -7.16859375 73.13046875 -7.13671875 71.98828125 C-7.11971924 71.3547876 -7.10271973 70.72129395 -7.08520508 70.06860352 C-6.65118723 59.41215947 -5.05330066 48.79767927 -3.63671875 38.23828125 C-3.49266602 37.15675781 -3.34861328 36.07523437 -3.20019531 34.9609375 C-2.36580294 28.71718502 -1.51021815 22.4766777 -0.63671875 16.23828125 C-2.99113591 16.38069773 -5.34519359 16.52712933 -7.69921875 16.67578125 C-9.66568359 16.79759766 -9.66568359 16.79759766 -11.671875 16.921875 C-15.37335113 17.21726374 -18.97042323 17.67093513 -22.63671875 18.23828125 C-22.98609186 12.64831156 -22.16144513 8.2761527 -19.63671875 3.23828125 C-15.00221973 -1.39621777 -6.17707746 0.04243893 0 0 Z " fill="#1562DE" transform="translate(358.63671875,224.76171875)"/>
<path d="M0 0 C3.3953362 0.7676955 4.98680898 1.7215126 7.125 4.48046875 C7.48068471 10.07064673 6.80055673 14.60905371 5.3125 20.04296875 C4.94032622 21.46291944 4.57058229 22.88350897 4.203125 24.3046875 C4.01943359 25.01028809 3.83574219 25.71588867 3.64648438 26.44287109 C-0.78945474 43.77543095 -2.13706439 61.72016118 -3.875 79.48046875 C-4.535 79.48046875 -5.195 79.48046875 -5.875 79.48046875 C-5.875 80.14046875 -5.875 80.80046875 -5.875 81.48046875 C-10.18249607 83.69948188 -13.20956261 83.77642358 -17.875 82.48046875 C-22.99157434 75.99947458 -22.31889602 68.46958574 -21.62207031 60.63769531 C-21.28377945 57.78752038 -20.90328238 54.94715807 -20.5 52.10546875 C-20.36134521 51.09379639 -20.22269043 50.08212402 -20.07983398 49.03979492 C-19.68577532 46.18556314 -19.28143059 43.33295993 -18.875 40.48046875 C-18.70871094 39.26746094 -18.54242188 38.05445313 -18.37109375 36.8046875 C-17.92212326 33.68616274 -17.40864685 30.58564874 -16.875 27.48046875 C-16.75044434 26.70010254 -16.62588867 25.91973633 -16.49755859 25.11572266 C-16.06464799 22.44086442 -15.59762997 19.77357232 -15.125 17.10546875 C-14.99230713 16.26024658 -14.85961426 15.41502441 -14.72290039 14.54418945 C-13.15475453 6.10064912 -9.34771196 -0.83687286 0 0 Z " fill="#1461DD" transform="translate(476.875,224.51953125)"/>
<path d="M0 0 C4.16507659 3.71479804 6.61583262 8.99754376 7.3215332 14.51293945 C7.475882 17.39078938 7.51811947 20.24306313 7.5 23.125 C7.49572998 24.14456787 7.49145996 25.16413574 7.48706055 26.21459961 C7.24680466 36.89197859 4.88936973 46.32385648 -3 54 C-6.23354139 55.6167707 -8.42760535 55.47631929 -12 55 C-16.92701032 51.25912179 -19.44777474 45.88788121 -21 40 C-21.42650299 36.55133964 -21.47706197 33.15953405 -21.4375 29.6875 C-21.42992676 28.76050293 -21.42235352 27.83350586 -21.41455078 26.87841797 C-21.17893588 17.08406143 -19.11280719 9.61313901 -12.46484375 2.2421875 C-9.02187655 -0.67744868 -4.28433757 -0.75452909 0 0 Z " fill="#FAFCFE" transform="translate(310,239)"/>
<path d="M0 0 C2.97 0.33 5.94 0.66 9 1 C9 1.66 9 2.32 9 3 C9.721875 3.20625 10.44375 3.4125 11.1875 3.625 C15.67390997 5.81835599 18.23154378 9.13374917 20.12109375 13.72265625 C22.75821906 23.5562035 21.98433264 35.05709592 17 44 C14.90298578 46.92834725 12.73738399 49.64692854 10 52 C9.34 52 8.68 52 8 52 C8 52.66 8 53.32 8 54 C4.41996227 55.19334591 1.75684104 55.33543224 -2 55 C-4.88161873 52.10507125 -5.43177374 49.89483561 -5.4375 45.875 C-5.30433533 39.756823 -3.96779372 34.20736331 -2.50268555 28.30859375 C-0.31622236 18.97968417 -0.18823755 9.54364354 0 0 Z " fill="#F8FAFE" transform="translate(224,238)"/>
<path d="M0 0 C6.52184657 0.56222815 10.94942285 1.83248466 16.375 5.6875 C18.32261344 8.45910374 18.57504416 10.61332011 18.375 13.9765625 C17.60451013 18.13399743 15.6543897 20.82143035 12.234375 23.2578125 C7.38350262 25.98881545 3.51858573 26.65474746 -2 26 C-3.734375 24.74609375 -3.734375 24.74609375 -5 23 C-5.81981576 15.27882613 -2.42007974 7.18144592 0 0 Z " fill="#F5F8FD" transform="translate(514,268)"/>
<path d="M0 0 C12.32954545 1.23295455 12.32954545 1.23295455 16 5 C16.58389452 8.34412318 16.83107144 9.87417908 16 13 C13.59906707 16.22410993 12.05749882 17.69450034 8.1875 18.8125 C7.1046875 18.9053125 7.1046875 18.9053125 6 19 C6 19.66 6 20.32 6 21 C3.69 21 1.38 21 -1 21 C-0.67 14.07 -0.34 7.14 0 0 Z " fill="#F4F7FD" transform="translate(518,239)"/>
<path d="M0 0 C-1.38188453 3.21043882 -2.92421903 5.04936365 -5.625 7.25 C-6.57246094 8.03117188 -6.57246094 8.03117188 -7.5390625 8.828125 C-8.02117187 9.21484375 -8.50328125 9.6015625 -9 10 C-7.6834994 5.81113445 -4.97532335 0 0 0 Z " fill="#3879E3" transform="translate(208,230)"/>
</svg>
